HIERARCHY
ROOT Hips
{
	OFFSET 0.000000 100.481300 0.000000
	CHANNELS 6 Xposition Yposition Zposition Xrotation Yrotation Zrotation 
	JOINT Spine
	{
		OFFSET -0.279200 12.230698 -2.892100
		CHANNELS 3 Xrotation Yrotation Zrotation
		JOINT Spine1
		{
			OFFSET -0.232667 10.192268 -1.242267
			CHANNELS 3 Xrotation Yrotation Zrotation
			JOINT Spine1_split
			{
				OFFSET -0.232667 10.192268 -1.242267
				CHANNELS 3 Xrotation Yrotation Zrotation
				JOINT Spine2
				{
					OFFSET -0.232667 10.192268 -1.242267
					CHANNELS 3 Xrotation Yrotation Zrotation
					JOINT Neck
					{
						OFFSET -0.418800 17.814194 8.416900
						CHANNELS 3 Xrotation Yrotation Zrotation
						JOINT Head
						{
							OFFSET 0.000000 7.031097 3.806800
							CHANNELS 3 Xrotation Yrotation Zrotation
							JOINT HeadTop_End
							{
								OFFSET 0.000000 24.646606 12.978600
								CHANNELS 3 Xrotation Yrotation Zrotation
								End Site
								{
									OFFSET 0.000000 0.000000 0.000000
								}
							}
						}
					}
					JOINT LeftShoulder
					{
						OFFSET 8.476499 7.247704 -3.868750
						CHANNELS 3 Xrotation Yrotation Zrotation
						JOINT LeftShoulder_split
						{
							OFFSET 8.476499 7.247704 -3.868750
							CHANNELS 3 Xrotation Yrotation Zrotation
							JOINT LeftArm
							{
								OFFSET 9.308998 -2.777710 0.208600
								CHANNELS 3 Xrotation Yrotation Zrotation
								JOINT LeftForeArm
								{
									OFFSET 29.972298 0.000000 0.000000
									CHANNELS 3 Xrotation Yrotation Zrotation
									JOINT LeftHand
									{
										OFFSET 26.026505 0.000000 0.000000
										CHANNELS 3 Xrotation Yrotation Zrotation
										JOINT LeftHandThumb1
										{
											OFFSET 12.240501 -7.147949 9.207150
											CHANNELS 3 Xrotation Yrotation Zrotation
											JOINT LeftHandThumb2
											{
												OFFSET 4.138618 -2.389435 2.389433
												CHANNELS 3 Xrotation Yrotation Zrotation
												JOINT LeftHandThumb3
												{
													OFFSET 2.726913 -1.574387 1.574386
													CHANNELS 3 Xrotation Yrotation Zrotation
													JOINT LeftHandThumb4
													{
														OFFSET 3.941010 -2.275345 2.275342
														CHANNELS 3 Xrotation Yrotation Zrotation
														End Site
														{
															OFFSET 0.000000 0.000000 0.000000
														}
													}
												}
											}
										}
										JOINT LeftHandIndex1
										{
											OFFSET 24.424698 -1.985611 5.953459
											CHANNELS 3 Xrotation Yrotation Zrotation
											JOINT LeftHandIndex2
											{
												OFFSET 6.426697 0.000000 0.000000
												CHANNELS 3 Xrotation Yrotation Zrotation
												JOINT LeftHandIndex3
												{
													OFFSET 5.337898 0.000000 0.000000
													CHANNELS 3 Xrotation Yrotation Zrotation
													JOINT LeftHandIndex4
													{
														OFFSET 4.409401 0.000000 0.000000
														CHANNELS 3 Xrotation Yrotation Zrotation
														End Site
														{
															OFFSET 0.000000 0.000000 0.000000
														}
													}
												}
											}
										}
										JOINT LeftHandMiddle1
										{
											OFFSET 23.810104 0.000000 0.000000
											CHANNELS 3 Xrotation Yrotation Zrotation
											JOINT LeftHandMiddle2
											{
												OFFSET 7.176498 0.000000 0.000000
												CHANNELS 3 Xrotation Yrotation Zrotation
												JOINT LeftHandMiddle3
												{
													OFFSET 6.774902 0.000000 0.000000
													CHANNELS 3 Xrotation Yrotation Zrotation
													JOINT LeftHandMiddle4
													{
														OFFSET 5.403328 0.000000 0.000000
														CHANNELS 3 Xrotation Yrotation Zrotation
														End Site
														{
															OFFSET 0.000000 0.000000 0.000000
														}
													}
												}
											}
										}
										JOINT LeftHandRing1
										{
											OFFSET 22.908401 -0.839279 -6.020567
											CHANNELS 3 Xrotation Yrotation Zrotation
											JOINT LeftHandRing2
											{
												OFFSET 6.337502 0.000000 0.000000
												CHANNELS 3 Xrotation Yrotation Zrotation
												JOINT LeftHandRing3
												{
													OFFSET 5.779297 0.000000 0.000000
													CHANNELS 3 Xrotation Yrotation Zrotation
													JOINT LeftHandRing4
													{
														OFFSET 4.965698 0.000000 0.000000
														CHANNELS 3 Xrotation Yrotation Zrotation
														End Site
														{
															OFFSET 0.000000 0.000000 0.000000
														}
													}
												}
											}
										}
										JOINT LeftHandPinky1
										{
											OFFSET 20.037003 -1.530319 -10.950146
											CHANNELS 3 Xrotation Yrotation Zrotation
											JOINT LeftHandPinky2
											{
												OFFSET 5.254700 0.000000 0.000000
												CHANNELS 3 Xrotation Yrotation Zrotation
												JOINT LeftHandPinky3
												{
													OFFSET 4.810204 0.000000 0.000000
													CHANNELS 3 Xrotation Yrotation Zrotation
													JOINT LeftHandPinky4
													{
														OFFSET 3.647202 0.000000 0.000000
														CHANNELS 3 Xrotation Yrotation Zrotation
														End Site
														{
															OFFSET 0.000000 0.000000 0.000000
														}
													}
												}
											}
										}
									}
								}
							}
						}
					}
					JOINT RightShoulder
					{
						OFFSET -7.570500 7.247704 -3.868750
						CHANNELS 3 Xrotation Yrotation Zrotation
						JOINT RightShoulder_split
						{
							OFFSET -7.570500 7.247704 -3.868750
							CHANNELS 3 Xrotation Yrotation Zrotation
							JOINT RightArm
							{
								OFFSET -9.308998 -2.777710 0.208500
								CHANNELS 3 Xrotation Yrotation Zrotation
								JOINT RightForeArm
								{
									OFFSET -29.972300 0.000000 0.000000
									CHANNELS 3 Xrotation Yrotation Zrotation
									JOINT RightHand
									{
										OFFSET -26.026505 0.000000 0.000000
										CHANNELS 3 Xrotation Yrotation Zrotation
										JOINT RightHandThumb1
										{
											OFFSET -12.240601 -7.148026 9.207092
											CHANNELS 3 Xrotation Yrotation Zrotation
											JOINT RightHandThumb2
											{
												OFFSET -4.138618 -2.389435 2.389433
												CHANNELS 3 Xrotation Yrotation Zrotation
												JOINT RightHandThumb3
												{
													OFFSET -2.726974 -1.574417 1.574421
													CHANNELS 3 Xrotation Yrotation Zrotation
													JOINT RightHandThumb4
													{
														OFFSET -3.941010 -2.275345 2.275343
														CHANNELS 3 Xrotation Yrotation Zrotation
														End Site
														{
															OFFSET 0.000000 0.000000 0.000000
														}
													}
												}
											}
										}
										JOINT RightHandIndex1
										{
											OFFSET -24.424698 -1.985657 5.953444
											CHANNELS 3 Xrotation Yrotation Zrotation
											JOINT RightHandIndex2
											{
												OFFSET -6.426697 0.000000 0.000000
												CHANNELS 3 Xrotation Yrotation Zrotation
												JOINT RightHandIndex3
												{
													OFFSET -5.337898 0.000000 0.000000
													CHANNELS 3 Xrotation Yrotation Zrotation
													JOINT RightHandIndex4
													{
														OFFSET -4.409401 0.000000 0.000000
														CHANNELS 3 Xrotation Yrotation Zrotation
														End Site
														{
															OFFSET 0.000000 0.000000 0.000000
														}
													}
												}
											}
										}
										JOINT RightHandMiddle1
										{
											OFFSET -23.810097 0.000000 0.000000
											CHANNELS 3 Xrotation Yrotation Zrotation
											JOINT RightHandMiddle2
											{
												OFFSET -7.176498 0.000000 0.000000
												CHANNELS 3 Xrotation Yrotation Zrotation
												JOINT RightHandMiddle3
												{
													OFFSET -6.774902 0.000000 0.000000
													CHANNELS 3 Xrotation Yrotation Zrotation
													JOINT RightHandMiddle4
													{
														OFFSET -5.403328 0.000000 0.000000
														CHANNELS 3 Xrotation Yrotation Zrotation
														End Site
														{
															OFFSET 0.000000 0.000000 0.000000
														}
													}
												}
											}
										}
										JOINT RightHandRing1
										{
											OFFSET -22.908302 -0.839325 -6.020576
											CHANNELS 3 Xrotation Yrotation Zrotation
											JOINT RightHandRing2
											{
												OFFSET -6.337502 0.000000 0.000000
												CHANNELS 3 Xrotation Yrotation Zrotation
												JOINT RightHandRing3
												{
													OFFSET -5.779297 0.000000 0.000000
													CHANNELS 3 Xrotation Yrotation Zrotation
													JOINT RightHandRing4
													{
														OFFSET -4.965698 0.000000 0.000000
														CHANNELS 3 Xrotation Yrotation Zrotation
														End Site
														{
															OFFSET 0.000000 0.000000 0.000000
														}
													}
												}
											}
										}
										JOINT RightHandPinky1
										{
											OFFSET -20.037003 -1.530334 -10.950259
											CHANNELS 3 Xrotation Yrotation Zrotation
											JOINT RightHandPinky2
											{
												OFFSET -5.254700 0.000000 0.000000
												CHANNELS 3 Xrotation Yrotation Zrotation
												JOINT RightHandPinky3
												{
													OFFSET -4.810204 0.000000 0.000000
													CHANNELS 3 Xrotation Yrotation Zrotation
													JOINT RightHandPinky4
													{
														OFFSET -3.647202 0.000000 0.000000
														CHANNELS 3 Xrotation Yrotation Zrotation
														End Site
														{
															OFFSET 0.000000 0.000000 0.000000
														}
													}
												}
											}
										}
									}
								}
							}
						}
					}
				}
			}
		}
	}
	JOINT LeftUpLeg
	{
		OFFSET 15.427100 -6.655098 0.678600
		CHANNELS 3 Xrotation Yrotation Zrotation
		JOINT LeftLeg
		{
			OFFSET 4.081073 -39.591068 13.024000
			CHANNELS 3 Xrotation Yrotation Zrotation
			JOINT LeftFoot
			{
				OFFSET -4.081074 -37.707932 -15.979700
				CHANNELS 3 Xrotation Yrotation Zrotation
				JOINT LeftToeBase
				{
					OFFSET 5.346399 -15.068900 20.645000
					CHANNELS 3 Xrotation Yrotation Zrotation
					JOINT LeftToe_End
					{
						OFFSET 2.754700 0.931300 11.300900
						CHANNELS 3 Xrotation Yrotation Zrotation
						End Site
						{
							OFFSET 0.000000 0.000000 0.000000
						}
					}
				}
			}
		}
	}
	JOINT RightUpLeg
	{
		OFFSET -15.569500 -6.655098 0.678600
		CHANNELS 3 Xrotation Yrotation Zrotation
		JOINT RightLeg
		{
			OFFSET -4.081825 -39.591045 13.023800
			CHANNELS 3 Xrotation Yrotation Zrotation
			JOINT RightFoot
			{
				OFFSET 4.081824 -37.707954 -15.979600
				CHANNELS 3 Xrotation Yrotation Zrotation
				JOINT RightToeBase
				{
					OFFSET -5.346400 -15.068900 20.645000
					CHANNELS 3 Xrotation Yrotation Zrotation
					JOINT RightToe_End
					{
						OFFSET -2.754700 0.931300 11.300900
						CHANNELS 3 Xrotation Yrotation Zrotation
						End Site
						{
							OFFSET 0.000000 0.000000 0.000000
						}
					}
				}
			}
		}
	}
}
MOTION
Frames: 5
Frame Time: 0.016667
67.426781 92.564995 162.157578 -3.451326 42.786935 9.624630 2.620350 -1.062635 -7.764551 -1.325620 -1.163661 0.817525 0.000000 0.000000 0.000000 -1.438975 -1.086679 0.916038 -7.118965 3.300079 1.481927 3.009344 7.256440 -2.336363 -0.000000 -0.000003 -0.000000 1.278785 8.282231 -5.884514 0.000000 0.000000 0.000000 5.487386 -5.716217 -69.262578 10.995039 -23.144451 4.299488 -3.505222 1.553095 -4.566425 10.887899 1.246816 25.518082 -6.107967 25.101695 -7.037434 -9.406646 -1.750295 -3.989124 0.000004 -0.000002 0.000000 2.273933 2.860331 -7.022255 -2.151790 2.437465 -12.915089 -1.885688 4.814851 -8.697639 0.000000 -0.000000 -0.000002 -1.975894 5.648616 -12.925032 0.258616 5.087091 -31.070315 -0.657301 1.132682 -15.791134 -0.000003 0.000003 0.000002 -4.961691 10.079267 -11.366446 4.009608 4.047731 -37.672612 2.112264 3.154732 -20.008370 0.000001 -0.000001 0.000001 -6.453047 11.290870 -20.815893 10.729974 2.574874 -38.101637 6.432899 3.097501 -18.557479 0.000000 0.000000 -0.000000 0.653105 6.246606 2.354861 0.000000 0.000000 0.000000 1.709289 -0.054541 76.942081 10.204121 11.314857 -3.125138 0.035619 4.570855 -3.022551 10.804400 -0.128328 -25.394999 -5.935856 -25.377858 7.041897 -8.629346 0.246792 3.587699 0.000003 -0.000000 -0.000002 2.290262 -3.071419 7.871195 -2.151283 -2.429196 14.934062 -1.878403 -4.822643 10.716022 -0.000004 0.000001 -0.000000 -1.974390 -5.650448 14.486237 0.269453 -5.094366 31.329719 -0.661169 -1.135442 16.049783 -0.000001 0.000001 0.000002 -4.966013 -10.089005 12.710199 4.004644 -4.055519 37.979957 2.122485 -3.152947 20.316386 0.000001 0.000000 0.000000 -6.445527 -11.295040 22.248658 10.719214 -2.567194 37.975169 6.423203 -3.087392 18.431595 -0.000000 -0.000001 0.000001 -17.649750 11.967571 -17.638327 32.738237 -7.971491 1.191216 14.274640 -1.807118 15.160749 -27.078340 0.074199 3.669726 0.000000 0.000004 0.000000 -18.584154 15.390489 -2.843300 53.763042 -9.107499 -1.484358 24.979315 -5.966788 -3.817841 -38.368902 -2.940338 15.762340 -0.000001 -0.000002 -0.000000 
68.364883 92.945137 163.591125 -3.084601 44.003934 8.760138 3.141553 -1.360594 -7.658622 -1.672386 -1.446834 1.136366 0.000000 0.000000 0.000000 -1.783761 -1.357292 1.239757 -6.992466 3.127423 1.770554 3.081410 7.243111 -2.534712 0.000000 0.000002 0.000000 1.222378 7.998261 -5.656146 0.000000 0.000000 0.000000 4.902270 -6.661209 -69.184919 10.630494 -23.193314 4.158759 -3.663193 1.608660 -4.129030 10.909325 1.522082 25.549701 -6.151155 25.034119 -7.036820 -9.599612 -2.120127 -4.091471 -0.000000 -0.000000 0.000002 2.269687 2.808445 -6.812896 -2.151586 2.437655 -12.417626 -1.886581 4.815402 -8.200060 0.000001 0.000000 -0.000000 -1.976499 5.649597 -12.540127 0.258741 5.086669 -31.006521 -0.657472 1.133257 -15.727325 -0.000001 -0.000000 0.000004 -4.961855 10.080330 -11.034825 4.009662 4.047396 -37.596804 2.111951 3.154884 -19.932544 -0.000000 0.000000 -0.000003 -6.453607 11.291855 -20.462847 10.729414 2.575066 -38.132441 6.433020 3.097719 -18.588223 -0.000001 -0.000000 0.000001 0.631578 5.767205 2.506480 0.000000 0.000000 0.000000 2.266448 -0.402030 76.731301 9.995593 11.382982 -3.178013 0.011982 4.430580 -2.802321 10.782477 0.147491 -25.365084 -5.892636 -25.445479 7.042859 -8.441576 -0.125842 3.492240 -0.000002 0.000002 0.000001 2.295239 -3.123462 8.080483 -2.151253 -2.429909 15.431624 -1.878150 -4.824048 11.213607 -0.000004 -0.000000 -0.000001 -1.974493 -5.650691 14.871122 0.269476 -5.094366 31.393506 -0.660956 -1.134637 16.113630 -0.000001 -0.000001 0.000000 -4.966629 -10.089647 13.041878 4.004885 -4.055849 38.055803 2.122842 -3.153477 20.392189 -0.000000 0.000000 0.000001 -6.446278 -11.296287 22.601692 10.719382 -2.567254 37.944423 6.423092 -3.087418 18.400835 0.000001 -0.000003 0.000001 -16.388185 11.823162 -17.009589 32.534950 -8.663305 1.159465 12.864841 -2.027773 15.506633 -26.771746 0.098738 3.561957 0.000000 0.000001 0.000000 -21.552168 16.382907 -2.092357 53.290949 -9.404679 -1.528513 23.864189 -6.091312 -1.835993 -34.159221 -1.634496 14.915181 0.000000 0.000004 -0.000000 
69.471481 93.440392 165.149033 -2.701314 45.120926 7.720439 3.266271 -1.523486 -7.234247 -1.777615 -1.610047 1.334798 0.000000 0.000000 0.000000 -1.884349 -1.504942 1.444946 -6.959354 2.850367 2.091293 3.091849 7.132215 -2.654660 0.000000 -0.000002 -0.000000 1.160517 7.595428 -5.207532 0.000000 0.000000 0.000000 4.128661 -7.551712 -69.228967 10.365313 -23.115711 4.027335 -3.787317 0.679964 -3.598836 10.930306 1.792574 25.581154 -6.193611 24.967750 -7.036305 -9.790371 -2.483156 -4.193430 -0.000003 -0.000000 0.000002 2.265736 2.757455 -6.607062 -2.151405 2.437960 -11.928487 -1.887626 4.816287 -7.710934 -0.000000 -0.000000 -0.000000 -1.977444 5.650760 -12.161685 0.258689 5.086297 -30.943824 -0.657622 1.133815 -15.664569 -0.000003 0.000001 0.000000 -4.962422 10.081676 -10.708761 4.009732 4.047083 -37.522300 2.111642 3.155004 -19.858012 0.000002 0.000001 -0.000000 -6.454407 11.293238 -20.115819 10.728967 2.575301 -38.162712 6.433166 3.097906 -18.618489 -0.000002 -0.000003 -0.000002 0.551899 5.166420 2.977071 0.000000 0.000000 0.000000 2.826261 -0.847811 76.289894 9.960798 11.547388 -3.248022 0.025184 3.872501 -2.722517 10.760877 0.418773 -25.335984 -5.850180 -25.512003 7.043875 -8.257948 -0.492746 3.399692 0.000001 -0.000000 -0.000002 2.301336 -3.174546 8.286270 -2.151122 -2.430790 15.920809 -1.878151 -4.826334 11.702715 -0.000000 -0.000000 -0.000001 -1.974750 -5.651232 15.249516 0.269522 -5.094254 31.456221 -0.660732 -1.134076 16.176354 -0.000000 0.000002 -0.000001 -4.967254 -10.090641 13.367995 4.005144 -4.056072 38.130327 2.123170 -3.154005 20.466735 -0.000001 0.000000 -0.000000 -6.447196 -11.298463 22.948674 10.719508 -2.567291 37.914127 6.422999 -3.087446 18.370601 0.000000 0.000001 -0.000002 -15.594299 10.888661 -16.299073 32.358650 -9.539125 1.088090 12.263665 -1.821818 15.713883 -26.843706 0.128799 3.236152 -0.000000 0.000002 0.000000 -24.207953 17.327910 -0.977087 51.862340 -8.994809 -1.585928 22.555740 -6.547926 -1.207018 -32.779765 -0.955767 11.679342 0.000001 0.000001 -0.000000 
70.521240 94.089638 166.551727 -2.389987 46.184325 6.803683 3.351799 -1.677507 -6.747623 -1.781114 -1.770528 1.443605 0.000000 0.000000 0.000000 -1.883106 -1.652035 1.562385 -7.063834 2.589949 2.525420 3.065760 7.112185 -2.915454 -0.000000 0.000004 0.000000 1.118780 7.115255 -4.973794 0.000000 0.000000 0.000000 3.357535 -8.132493 -69.115586 10.372753 -23.221339 4.056493 -3.801011 -0.070273 -3.042804 10.950732 2.056777 25.612147 -6.235108 24.902885 -7.035891 -9.977774 -2.837258 -4.294388 0.000002 -0.000000 -0.000000 2.262122 2.707678 -6.405983 -2.152477 2.438507 -11.450582 -1.888777 4.817469 -7.233006 -0.000000 -0.000002 -0.000001 -1.978364 5.652196 -11.792018 0.258165 5.085935 -30.882472 -0.657765 1.134382 -15.603291 0.000000 -0.000000 0.000001 -4.963215 10.083313 -10.390174 4.009828 4.046809 -37.449453 2.111337 3.155204 -19.785204 -0.000001 -0.000001 0.000000 -6.455440 11.294981 -19.776732 10.728686 2.575524 -38.192338 6.433270 3.098086 -18.648064 0.000001 -0.000001 0.000000 0.499421 4.835789 3.514561 0.000000 0.000000 0.000000 3.199686 -1.335498 75.878634 10.075122 11.516166 -3.432971 -0.002052 3.871203 -2.507616 10.739659 0.683893 -25.307857 -5.808663 -25.576956 7.044991 -8.079429 -0.851711 3.310463 -0.000001 0.000000 -0.000000 2.307801 -3.224461 8.487372 -2.151013 -2.431824 16.398750 -1.878133 -4.828517 12.180685 0.000001 -0.000001 0.000003 -1.975085 -5.652000 15.619261 0.269526 -5.094111 31.517498 -0.660553 -1.133923 16.237670 -0.000003 -0.000003 0.000003 -4.967838 -10.091922 13.686675 4.005371 -4.056319 38.203140 2.123486 -3.154533 20.539574 0.000001 -0.000000 0.000002 -6.448334 -11.300613 23.287786 10.719647 -2.567324 37.884570 6.422915 -3.087467 18.341090 0.000001 -0.000001 -0.000001 -14.360536 10.226936 -15.666480 31.609139 -10.617732 0.992550 11.882851 -1.809992 16.054730 -27.108124 0.123114 3.217133 -0.000000 0.000001 0.000000 -25.671194 18.177227 -0.639952 49.069165 -8.528561 -1.329957 20.672997 -6.471087 0.911667 -31.175330 -0.354014 7.966134 -0.000000 -0.000001 -0.000000 
71.603485 94.743942 167.938492 -2.273200 47.296936 6.113637 3.739447 -1.823475 -6.453359 -1.917041 -1.870127 1.566975 0.000000 0.000000 0.000000 -2.016496 -1.745487 1.688299 -7.136430 2.301325 2.835103 3.015807 6.976175 -2.961341 -0.000000 -0.000001 -0.000000 1.054432 6.658283 -4.553236 0.000000 0.000000 0.000000 2.584425 -8.729322 -69.170746 10.931303 -23.345692 4.316947 -3.819420 -0.399066 -2.588671 10.970430 2.313105 25.642560 -6.275334 24.839957 -7.035500 -10.160671 -3.180475 -4.393622 -0.000001 -0.000001 -0.000002 2.259801 2.659280 -6.210801 -2.153704 2.439145 -10.986637 -1.890048 4.818907 -6.769058 -0.000001 0.000000 -0.000000 -1.979290 5.653774 -11.433108 0.257319 5.085612 -30.822981 -0.657915 1.135045 -15.543753 0.000001 -0.000002 -0.000001 -4.964078 10.085178 -10.080936 4.009870 4.046635 -37.378825 2.111048 3.155415 -19.714501 -0.000002 0.000003 -0.000002 -6.456679 11.297030 -19.447581 10.728468 2.575738 -38.221056 6.433401 3.098264 -18.676737 -0.000000 0.000000 -0.000003 0.468852 4.296580 3.807815 0.000000 0.000000 0.000000 3.712518 -1.736369 75.758075 10.237051 11.570051 -3.600592 -0.017989 3.454727 -2.229715 10.719018 0.941364 -25.280885 -5.768391 -25.640043 7.046082 -7.906991 -1.200612 3.225034 -0.000003 -0.000002 -0.000002 2.314363 -3.272910 8.682518 -2.150845 -2.432958 16.862723 -1.878197 -4.830625 12.644593 -0.000003 0.000000 -0.000000 -1.975473 -5.652944 15.978131 0.269417 -5.093957 31.577010 -0.660410 -1.134031 16.297156 0.000004 0.000002 0.000001 -4.968458 -10.093483 13.996011 4.005631 -4.056589 38.273839 2.123771 -3.155090 20.610263 0.000002 0.000001 0.000001 -6.449581 -11.302728 23.616972 10.719813 -2.567396 37.855866 6.422832 -3.087492 18.312401 -0.000000 0.000002 -0.000002 -12.717918 9.492755 -15.136872 30.580622 -11.582834 0.889705 11.351798 -1.980187 16.390967 -27.390659 0.093054 3.401332 -0.000000 -0.000004 -0.000000 -26.828949 18.846584 -0.441092 46.094683 -9.276162 -1.304468 19.678499 -6.902938 1.209232 -29.775523 -0.008479 4.935151 -0.000000 -0.000001 0.000000 
